<mxfile host="65bd71144e">
    <diagram id="7W33uEh9ZzW-GppHaLwA" name="Page-1">
        <mxGraphModel dx="1086" dy="664" grid="1" gridSize="10" guides="1" tooltips="1" connect="1" arrows="1" fold="1" page="1" pageScale="1" pageWidth="850" pageHeight="1100" math="0" shadow="0">
            <root>
                <mxCell id="0"/>
                <mxCell id="1" parent="0"/>
                <mxCell id="2" value="ESP32-P4/H2" style="rounded=0;whiteSpace=wrap;html=1;align=left;verticalAlign=top;fillColor=#CCCCFF;fontColor=#000000;" parent="1" vertex="1">
                    <mxGeometry x="100" y="242.5" width="250" height="138" as="geometry"/>
                </mxCell>
                <mxCell id="3" value="&lt;font style=&quot;font-size: 12px;&quot;&gt;&lt;b&gt;esp-wifi-remote&lt;/b&gt;&lt;br&gt;&lt;br&gt;esp_wifi_init();&lt;br&gt;esp_wifi_connect();&lt;br&gt;&lt;b&gt;...&lt;/b&gt;&lt;br&gt;&lt;/font&gt;" style="rounded=0;whiteSpace=wrap;html=1;fillColor=#FFFFCC;fontColor=#000000;align=left;verticalAlign=top;" parent="1" vertex="1">
                    <mxGeometry x="120" y="276.5" width="110" height="88" as="geometry"/>
                </mxCell>
                <mxCell id="21" value="ESP32/ESP32-C/S" style="rounded=0;whiteSpace=wrap;html=1;align=left;verticalAlign=top;fillColor=#CCCCFF;fontColor=#000000;" parent="1" vertex="1">
                    <mxGeometry x="450" y="242.5" width="120" height="138" as="geometry"/>
                </mxCell>
                <mxCell id="30" value="&lt;br&gt;" style="shape=flexArrow;endArrow=classic;startArrow=classic;html=1;fillColor=#e3c800;strokeColor=#B09500;fontSize=14;" parent="1" edge="1">
                    <mxGeometry width="100" height="100" relative="1" as="geometry">
                        <mxPoint x="350" y="310.5" as="sourcePoint"/>
                        <mxPoint x="450" y="310.5" as="targetPoint"/>
                        <mxPoint as="offset"/>
                        <Array as="points">
                            <mxPoint x="435" y="310.25"/>
                        </Array>
                    </mxGeometry>
                </mxCell>
                <mxCell id="33" value="" style="sketch=0;pointerEvents=1;shadow=0;dashed=0;html=1;strokeColor=none;fillColor=#FF99FF;aspect=fixed;labelPosition=center;verticalLabelPosition=bottom;verticalAlign=top;align=center;outlineConnect=0;shape=mxgraph.vvd.wi_fi;strokeWidth=2;" parent="1" vertex="1">
                    <mxGeometry x="600" y="237.5" width="50" height="50" as="geometry"/>
                </mxCell>
                <mxCell id="36" value="Backend solution&lt;br&gt;(host)" style="rounded=0;whiteSpace=wrap;html=1;align=center;verticalAlign=top;fillColor=#9999FF;fontColor=#000000;" parent="1" vertex="1">
                    <mxGeometry x="240" y="276.5" width="90" height="88" as="geometry"/>
                </mxCell>
                <mxCell id="39" value="Backend solution&lt;br&gt;(slave)" style="rounded=0;whiteSpace=wrap;html=1;align=center;verticalAlign=top;fillColor=#9999FF;fontColor=#000000;" parent="1" vertex="1">
                    <mxGeometry x="470" y="272.5" width="80" height="68" as="geometry"/>
                </mxCell>
                <mxCell id="65" value="" style="shape=umlActor;verticalLabelPosition=bottom;verticalAlign=top;html=1;outlineConnect=0;fontSize=12;fontColor=#000000;fillColor=none;strokeWidth=2;strokeColor=#FF99FF;" parent="1" vertex="1">
                    <mxGeometry x="20" y="272.5" width="30" height="60" as="geometry"/>
                </mxCell>
                <mxCell id="70" value="&lt;div style=&quot;font-family: Consolas, &amp;quot;Courier New&amp;quot;, monospace; font-size: 14px; line-height: 19px;&quot;&gt;&lt;font color=&quot;#ff33ff&quot;&gt;&lt;b&gt;Remote&lt;/b&gt;&lt;/font&gt;&lt;/div&gt;&lt;div style=&quot;font-family: Consolas, &amp;quot;Courier New&amp;quot;, monospace; font-size: 14px; line-height: 19px;&quot;&gt;&lt;font color=&quot;#ff33ff&quot;&gt;&lt;b&gt;Wifi&lt;/b&gt;&lt;/font&gt;&lt;/div&gt;" style="text;html=1;strokeColor=none;fillColor=none;align=center;verticalAlign=middle;whiteSpace=wrap;rounded=0;strokeWidth=2;fontSize=12;fontColor=#000000;" parent="1" vertex="1">
                    <mxGeometry x="650" y="240" width="50" height="45" as="geometry"/>
                </mxCell>
            </root>
        </mxGraphModel>
    </diagram>
</mxfile>
